<mxfile host="app.diagrams.net" modified="2022-04-28T14:18:54.793Z" agent="5.0 (Windows NT 10.0; Win64; x64) AppleWebKit/537.36 (KHTML, like Gecko) Chrome/97.0.4692.71 Safari/537.36" etag="D5LVHDy1FJYx-gOYKS9L" version="17.4.6" type="github">
  <diagram id="VFLp4C9wst7MWV0tXBqA" name="Page-1">
    <mxGraphModel dx="1422" dy="762" grid="1" gridSize="10" guides="1" tooltips="1" connect="1" arrows="1" fold="1" page="1" pageScale="1" pageWidth="827" pageHeight="1169" math="0" shadow="0">
      <root>
        <mxCell id="0" />
        <mxCell id="1" parent="0" />
        <mxCell id="xceocJhuSqhBGVP0jAdD-20" value="" style="rounded=0;whiteSpace=wrap;html=1;fillColor=#fff2cc;strokeColor=#d6b656;" vertex="1" parent="1">
          <mxGeometry x="210" y="680" width="40" height="20" as="geometry" />
        </mxCell>
        <mxCell id="xceocJhuSqhBGVP0jAdD-21" value="" style="rounded=0;whiteSpace=wrap;html=1;fillColor=#fff2cc;strokeColor=#d6b656;" vertex="1" parent="1">
          <mxGeometry x="210" y="700" width="40" height="20" as="geometry" />
        </mxCell>
        <mxCell id="xceocJhuSqhBGVP0jAdD-25" value="" style="rounded=0;whiteSpace=wrap;html=1;fillColor=#fff2cc;strokeColor=#d6b656;" vertex="1" parent="1">
          <mxGeometry x="260" y="680" width="40" height="20" as="geometry" />
        </mxCell>
        <mxCell id="xceocJhuSqhBGVP0jAdD-28" value="" style="rounded=0;whiteSpace=wrap;html=1;fillColor=#fff2cc;strokeColor=#d6b656;" vertex="1" parent="1">
          <mxGeometry x="260" y="700" width="40" height="20" as="geometry" />
        </mxCell>
        <mxCell id="xceocJhuSqhBGVP0jAdD-29" value="" style="ellipse;whiteSpace=wrap;html=1;aspect=fixed;fillColor=#1ba1e2;fontColor=#ffffff;strokeColor=#006EAF;" vertex="1" parent="1">
          <mxGeometry x="120" y="650" width="20" height="20" as="geometry" />
        </mxCell>
        <mxCell id="xceocJhuSqhBGVP0jAdD-31" value="" style="ellipse;whiteSpace=wrap;html=1;aspect=fixed;fillColor=#1ba1e2;fontColor=#ffffff;strokeColor=#006EAF;" vertex="1" parent="1">
          <mxGeometry x="270" y="650" width="20" height="20" as="geometry" />
        </mxCell>
        <mxCell id="xceocJhuSqhBGVP0jAdD-43" value="" style="curved=1;endArrow=classic;html=1;rounded=0;exitX=0.5;exitY=0;exitDx=0;exitDy=0;fillColor=#1ba1e2;strokeColor=#006EAF;" edge="1" parent="1" source="xceocJhuSqhBGVP0jAdD-61">
          <mxGeometry width="50" height="50" relative="1" as="geometry">
            <mxPoint x="141.79" y="645.14" as="sourcePoint" />
            <mxPoint x="233.2150707428746" y="649.9950424457248" as="targetPoint" />
            <Array as="points">
              <mxPoint x="190" y="630" />
              <mxPoint x="220" y="630" />
            </Array>
          </mxGeometry>
        </mxCell>
        <mxCell id="xceocJhuSqhBGVP0jAdD-45" value="" style="curved=1;endArrow=classic;html=1;rounded=0;entryX=0.5;entryY=0;entryDx=0;entryDy=0;fillColor=#1ba1e2;strokeColor=#006EAF;exitX=0.5;exitY=0;exitDx=0;exitDy=0;" edge="1" parent="1" source="xceocJhuSqhBGVP0jAdD-61" target="xceocJhuSqhBGVP0jAdD-29">
          <mxGeometry width="50" height="50" relative="1" as="geometry">
            <mxPoint x="150" y="650" as="sourcePoint" />
            <mxPoint x="440" y="620" as="targetPoint" />
            <Array as="points">
              <mxPoint x="180" y="630" />
              <mxPoint x="140" y="630" />
            </Array>
          </mxGeometry>
        </mxCell>
        <mxCell id="xceocJhuSqhBGVP0jAdD-48" value="" style="rounded=1;whiteSpace=wrap;html=1;" vertex="1" parent="1">
          <mxGeometry x="90" y="410" width="225" height="160" as="geometry" />
        </mxCell>
        <mxCell id="xceocJhuSqhBGVP0jAdD-51" value="" style="shape=flexArrow;endArrow=classic;html=1;rounded=0;endWidth=11;endSize=7.44;fillColor=#1ba1e2;strokeColor=#006EAF;gradientColor=#ffffff;" edge="1" parent="1">
          <mxGeometry width="50" height="50" relative="1" as="geometry">
            <mxPoint x="202" y="625" as="sourcePoint" />
            <mxPoint x="202" y="585" as="targetPoint" />
          </mxGeometry>
        </mxCell>
        <mxCell id="xceocJhuSqhBGVP0jAdD-52" value="" style="rhombus;whiteSpace=wrap;html=1;" vertex="1" parent="1">
          <mxGeometry x="137.5" y="290" width="130" height="50" as="geometry" />
        </mxCell>
        <mxCell id="xceocJhuSqhBGVP0jAdD-53" value="" style="rounded=0;whiteSpace=wrap;html=1;" vertex="1" parent="1">
          <mxGeometry x="122.5" y="200" width="160" height="30" as="geometry" />
        </mxCell>
        <mxCell id="xceocJhuSqhBGVP0jAdD-54" value="" style="shape=flexArrow;endArrow=classic;html=1;rounded=0;endWidth=11;endSize=7.44;fillColor=#1ba1e2;strokeColor=#006EAF;gradientColor=#ffffff;" edge="1" parent="1">
          <mxGeometry width="50" height="50" relative="1" as="geometry">
            <mxPoint x="202" y="280" as="sourcePoint" />
            <mxPoint x="202" y="240" as="targetPoint" />
          </mxGeometry>
        </mxCell>
        <mxCell id="xceocJhuSqhBGVP0jAdD-55" value="" style="shape=flexArrow;endArrow=classic;html=1;rounded=0;endWidth=11;endSize=7.44;fillColor=#1ba1e2;strokeColor=#006EAF;gradientColor=#ffffff;" edge="1" parent="1">
          <mxGeometry width="50" height="50" relative="1" as="geometry">
            <mxPoint x="202" y="390" as="sourcePoint" />
            <mxPoint x="202" y="350" as="targetPoint" />
          </mxGeometry>
        </mxCell>
        <mxCell id="xceocJhuSqhBGVP0jAdD-56" value="" style="rounded=0;whiteSpace=wrap;html=1;fillColor=#fff2cc;strokeColor=#d6b656;" vertex="1" parent="1">
          <mxGeometry x="260" y="740" width="40" height="20" as="geometry" />
        </mxCell>
        <mxCell id="xceocJhuSqhBGVP0jAdD-57" value="" style="rounded=0;whiteSpace=wrap;html=1;fillColor=#fff2cc;strokeColor=#d6b656;" vertex="1" parent="1">
          <mxGeometry x="260" y="720" width="40" height="20" as="geometry" />
        </mxCell>
        <mxCell id="xceocJhuSqhBGVP0jAdD-61" value="" style="ellipse;whiteSpace=wrap;html=1;aspect=fixed;fillColor=#1ba1e2;fontColor=#ffffff;strokeColor=#006EAF;" vertex="1" parent="1">
          <mxGeometry x="170" y="650" width="20" height="20" as="geometry" />
        </mxCell>
        <mxCell id="xceocJhuSqhBGVP0jAdD-64" value="" style="rounded=0;whiteSpace=wrap;html=1;fillColor=#fff2cc;strokeColor=#d6b656;" vertex="1" parent="1">
          <mxGeometry x="110" y="740" width="40" height="20" as="geometry" />
        </mxCell>
        <mxCell id="xceocJhuSqhBGVP0jAdD-65" value="" style="rounded=0;whiteSpace=wrap;html=1;fillColor=#fff2cc;strokeColor=#d6b656;" vertex="1" parent="1">
          <mxGeometry x="110" y="720" width="40" height="20" as="geometry" />
        </mxCell>
        <mxCell id="xceocJhuSqhBGVP0jAdD-66" value="" style="rounded=0;whiteSpace=wrap;html=1;fillColor=#fff2cc;strokeColor=#d6b656;" vertex="1" parent="1">
          <mxGeometry x="110" y="700" width="40" height="20" as="geometry" />
        </mxCell>
        <mxCell id="xceocJhuSqhBGVP0jAdD-67" value="" style="rounded=0;whiteSpace=wrap;html=1;fillColor=#fff2cc;strokeColor=#d6b656;" vertex="1" parent="1">
          <mxGeometry x="110" y="680" width="40" height="20" as="geometry" />
        </mxCell>
        <mxCell id="xceocJhuSqhBGVP0jAdD-68" value="" style="rounded=0;whiteSpace=wrap;html=1;fillColor=#fff2cc;strokeColor=#d6b656;" vertex="1" parent="1">
          <mxGeometry x="160" y="680" width="40" height="20" as="geometry" />
        </mxCell>
        <mxCell id="xceocJhuSqhBGVP0jAdD-69" value="" style="rounded=0;whiteSpace=wrap;html=1;fillColor=#fff2cc;strokeColor=#d6b656;" vertex="1" parent="1">
          <mxGeometry x="160" y="700" width="40" height="20" as="geometry" />
        </mxCell>
        <mxCell id="xceocJhuSqhBGVP0jAdD-70" value="" style="rounded=0;whiteSpace=wrap;html=1;fillColor=#fff2cc;strokeColor=#d6b656;" vertex="1" parent="1">
          <mxGeometry x="160" y="720" width="40" height="20" as="geometry" />
        </mxCell>
        <mxCell id="xceocJhuSqhBGVP0jAdD-71" value="" style="rounded=0;whiteSpace=wrap;html=1;fillColor=#fff2cc;strokeColor=#d6b656;" vertex="1" parent="1">
          <mxGeometry x="160" y="740" width="40" height="20" as="geometry" />
        </mxCell>
        <mxCell id="xceocJhuSqhBGVP0jAdD-72" value="" style="rounded=0;whiteSpace=wrap;html=1;fillColor=#fff2cc;strokeColor=#d6b656;" vertex="1" parent="1">
          <mxGeometry x="210" y="740" width="40" height="20" as="geometry" />
        </mxCell>
        <mxCell id="xceocJhuSqhBGVP0jAdD-73" value="" style="rounded=0;whiteSpace=wrap;html=1;fillColor=#fff2cc;strokeColor=#d6b656;" vertex="1" parent="1">
          <mxGeometry x="210" y="720" width="40" height="20" as="geometry" />
        </mxCell>
        <mxCell id="xceocJhuSqhBGVP0jAdD-85" value="" style="ellipse;whiteSpace=wrap;html=1;aspect=fixed;fillColor=#1ba1e2;fontColor=#ffffff;strokeColor=#006EAF;" vertex="1" parent="1">
          <mxGeometry x="220" y="650" width="20" height="20" as="geometry" />
        </mxCell>
        <mxCell id="xceocJhuSqhBGVP0jAdD-86" value="" style="curved=1;endArrow=classic;html=1;rounded=0;exitX=0.5;exitY=0;exitDx=0;exitDy=0;entryX=0.5;entryY=0;entryDx=0;entryDy=0;fillColor=#1ba1e2;strokeColor=#006EAF;" edge="1" parent="1" source="xceocJhuSqhBGVP0jAdD-85" target="xceocJhuSqhBGVP0jAdD-31">
          <mxGeometry width="50" height="50" relative="1" as="geometry">
            <mxPoint x="390" y="620" as="sourcePoint" />
            <mxPoint x="440" y="570" as="targetPoint" />
            <Array as="points">
              <mxPoint x="250" y="630" />
              <mxPoint x="270" y="630" />
            </Array>
          </mxGeometry>
        </mxCell>
        <mxCell id="xceocJhuSqhBGVP0jAdD-89" value="" style="whiteSpace=wrap;html=1;aspect=fixed;" vertex="1" parent="1">
          <mxGeometry x="115" y="160" width="30" height="30" as="geometry" />
        </mxCell>
        <mxCell id="xceocJhuSqhBGVP0jAdD-90" value="" style="whiteSpace=wrap;html=1;aspect=fixed;" vertex="1" parent="1">
          <mxGeometry x="165" y="160" width="30" height="30" as="geometry" />
        </mxCell>
        <mxCell id="xceocJhuSqhBGVP0jAdD-91" value="" style="whiteSpace=wrap;html=1;aspect=fixed;" vertex="1" parent="1">
          <mxGeometry x="215" y="160" width="30" height="30" as="geometry" />
        </mxCell>
        <mxCell id="xceocJhuSqhBGVP0jAdD-92" value="" style="whiteSpace=wrap;html=1;aspect=fixed;" vertex="1" parent="1">
          <mxGeometry x="265" y="160" width="30" height="30" as="geometry" />
        </mxCell>
      </root>
    </mxGraphModel>
  </diagram>
</mxfile>
